<svg xmlns="http://www.w3.org/2000/svg" viewBox="0 0 19.732 19.732"><defs><style>.a{fill:#fff;}</style></defs><g transform="translate(0 19.732) rotate(-90)"><path class="a" d="M3.835,19.732a1.589,1.589,0,0,1-.939-.319c-.028-.021-2.9-2.12-2.9-3.269l0-.068C.137,13.363,2.186,10.006,6.1,6.1S13.361.138,16.075,0l.046,0,.037,0c1.174,0,3.236,2.868,3.257,2.9a1.37,1.37,0,0,1-.144,1.92c-.314.236-3.628,2.407-4.033,2.649a1.561,1.561,0,0,1-1.561-.117c-.315-.172-1.3-.734-1.754-1A21.593,21.593,0,0,0,8.971,8.964a24.737,24.737,0,0,0-2.617,2.962c.265.459.825,1.44,1,1.766a1.55,1.55,0,0,1,.1,1.563c-.228.38-2.439,3.737-2.638,4.013a1.158,1.158,0,0,1-.832.455A1.286,1.286,0,0,1,3.835,19.732Z" transform="translate(0 0)"/></g></svg>